# xmcd CD database file
#
# Track frame offsets:
#	150
#	27346
#	63220
#	69455
#	99062
#	104747
#	116267
#	120327
#	143882
#	145877
#	150291
#	164348
#	167786
#	172648
#	183018
#	188731
#	194323
#	203728
#	216553
#	231993
#	253123
#	264608
#	286558
#	324604
#
# Disc length: 4646 seconds
#
# Revision: 7
# Processed by: cddbd v1.5.2PL0 Copyright (c) Steve Scherf et al.
# Submitted via: CDex 1.51
#
DISCID=4b122418
DTITLE=Various Artist - Evgeny Kissin ~ L'âme du piano russe  [RCA Red Seal - CD 2-2]
DYEAR=2011
DGENRE=Piano
TTITLE0=Dmitri Chostakovitch - Concerto pour piano N°1 en ut mineur, Op.35 ~ I. Allegro moderato
TTITLE1=Dmitri Chostakovitch - Concerto pour piano N°1 ~ II. Lento  . . . . . .   { dir. Vladimir Spivakov }
TTITLE2=Dmitri Chostakovitch - Concerto pour piano N°1 ~ III. Moderato  . . .   { Les Virtuoses de Moscou }
TTITLE3=Dmitri Chostakovitch - Concerto pour piano N°1 ~ IV. Allegro brio - presto
TTITLE4=Modest Moussorgski - Tableaux d'une exposition ~ Promenade
TTITLE5=Modest Moussorgski - Tableaux d'une exposition ~ Gnome
TTITLE6=Modest Moussorgski - Tableaux d'une exposition ~ Promenade
TTITLE7=Modest Moussorgski - Tableaux d'une exposition ~ Le vieux château
TTITLE8=Modest Moussorgski - Tableaux d'une exposition ~ Promenade
TTITLE9=Modest Moussorgski - Tableaux d'une exposition ~ Les Tuilleries
TTITLE10=Modest Moussorgski - Tableaux d'une exposition ~ Bydlo
TTITLE11=Modest Moussorgski - Tableaux d'une exposition ~ Promenade
TTITLE12=Modest Moussorgski - Tableaux d'une exposition ~ Ballet des poussins dans leur coque
TTITLE13=Modest Moussorgski - Tableaux d'une exposition ~ Samuel Goldenberg and Schmuÿle
TTITLE14=Modest Moussorgski - Tableaux d'une exposition ~ Promenade
TTITLE15=Modest Moussorgski - Tableaux d'une exposition ~ Le marché de Limoges
TTITLE16=Modest Moussorgski - Tableaux d'une exposition ~ Catacombe
TTITLE17=Modest Moussorgski - Tableaux d'une exposition ~ Cum mortis in langua mortua
TTITLE18=Modest Moussorgski - Tableaux d'une exposition ~ La cabane sur des pattes de poules
TTITLE19=Modest Moussorgski - Tableaux d'une exposition ~ La grande porte de Kiev
TTITLE20=Igor Stravinski - Trois mouvements de Petrouchka ~ N°1. Danse russe
TTITLE21=Igor Stravinski - Trois mouvements de Petrouchka ~ N°2. Chez Petrouchka
TTITLE22=Igor Stravinski - Trois mouvements de Petrouchka ~ N°3. La semaine grasse
TTITLE23=Mikhail Glinka - L'Alouette  (The Lark)
EXTD=YEAR: 2011
EXTT0=
EXTT1=
EXTT2=
EXTT3=
EXTT4=
EXTT5=
EXTT6=
EXTT7=
EXTT8=
EXTT9=
EXTT10=
EXTT11=
EXTT12=
EXTT13=
EXTT14=
EXTT15=
EXTT16=
EXTT17=
EXTT18=
EXTT19=
EXTT20=
EXTT21=
EXTT22=
EXTT23=
PLAYORDER=
